<svg xmlns="http://www.w3.org/2000/svg" width="24" height="24" fill="none" xmlns:v="https://vecta.io/nano"><g fill="#000"><circle cx="2.5" cy="10" r=".5"/><circle cx="2.5" cy="15" r=".5"/><path d="M3.443 13.335v-.528c.474 0 .805-.099.993-.298s.286-.531.286-.997v-1.364a4.12 4.12 0 0 1 .111-1.018c.077-.287.2-.524.371-.712s.398-.327.682-.418.635-.136 1.053-.136v.835c-.33 0-.589.051-.78.153a.86.86 0 0 0-.401.477c-.077.213-.115.486-.115.818v1.705c0 .222-.03.423-.089.605s-.163.338-.32.469-.379.232-.669.303-.661.107-1.121.107zm3.494 5.438c-.418 0-.768-.045-1.053-.136s-.511-.23-.682-.418-.294-.425-.371-.712a4.12 4.12 0 0 1-.111-1.018v-1.364c0-.466-.095-.798-.286-.997s-.518-.298-.993-.298v-.528c.46 0 .834.036 1.121.107s.513.172.669.303.263.287.32.469.089.383.089.605v1.705c0 .332.038.605.115.818a.86.86 0 0 0 .401.473c.19.105.45.158.78.158v.835zM3.443 13.83v-1.023h1.006v1.023H3.443z"/></g><path d="M9 10h6m-6 3h6m-6 3h6" stroke="#222" stroke-linecap="round"/><g fill="#000"><path d="M19.903 13.301v.528c-.474 0-.807.1-.997.298s-.281.531-.281.997v1.364c0 .392-.038.732-.115 1.018s-.196.524-.366.712-.398.327-.682.418-.635.136-1.053.136v-.835c.33 0 .588-.053.776-.158s.324-.26.401-.473.119-.486.119-.818v-1.705c0-.222.029-.423.085-.605s.168-.338.324-.469.378-.232.665-.303.665-.107 1.125-.107zm-3.494-5.437c.418 0 .769.045 1.053.136s.511.23.682.418.293.425.366.712.115.626.115 1.018v1.364c0 .466.094.798.281.997s.523.298.997.298v.528c-.46 0-.835-.036-1.125-.107s-.509-.172-.665-.303-.264-.287-.324-.469-.085-.383-.085-.605v-1.705c0-.332-.04-.605-.119-.818s-.21-.375-.401-.477-.446-.153-.776-.153v-.835zm3.494 4.943v1.023h-1.006v-1.023h1.006z"/><circle cx="21.5" cy="10" r=".5"/><circle cx="21.5" cy="15" r=".5"/></g></svg>